<svg xmlns="http://www.w3.org/2000/svg" xmlns:xlink="http://www.w3.org/1999/xlink" viewBox="0 0 707 365"><defs><style>.cls-1{fill:url(#linear-gradient);}.cls-2,.cls-23{fill:#e1e3ee;}.cls-2,.cls-4,.cls-6,.cls-7,.cls-8,.cls-9{stroke:#000;}.cls-10,.cls-11,.cls-12,.cls-13,.cls-14,.cls-15,.cls-16,.cls-17,.cls-2,.cls-20,.cls-4,.cls-6,.cls-9{stroke-miterlimit:10;}.cls-2,.cls-20,.cls-4{stroke-width:0.75px;}.cls-3{fill:#f2f2f2;}.cls-11,.cls-20,.cls-4,.cls-6,.cls-9{fill:none;}.cls-5,.cls-7,.cls-8{fill:#7aa3d2;stroke-linecap:round;stroke-linejoin:round;stroke-width:0.75px;}.cls-5{stroke:#5f5f64;}.cls-5,.cls-7{opacity:0.5;}.cls-10,.cls-11,.cls-12,.cls-13,.cls-14,.cls-15,.cls-16,.cls-17,.cls-6{stroke-width:0.5px;}.cls-10{fill:#f7931e;}.cls-10,.cls-11,.cls-12,.cls-13,.cls-14,.cls-15,.cls-16,.cls-17{stroke:#5e5e63;}.cls-12{fill:#ffd615;}.cls-13{fill:#fed814;}.cls-14{fill:#ff8004;}.cls-15{fill:#ff7f00;}.cls-16{fill:#eb202a;}.cls-17{fill:#ec0d20;}.cls-18,.cls-22{font-size:10px;fill:#5e5e63;}.cls-18,.cls-19{font-family:SKF Chevin OT Light;}.cls-19{font-size:12px;fill:#5f5f64;}.cls-20{stroke:#9a9a99;}.cls-21{fill:#9a9a99;}.cls-22{font-family:SKF Chevin OT Light;font-style:italic;}</style><linearGradient id="linear-gradient" x1="318" y1="342" x2="318" y2="256.42" gradientUnits="userSpaceOnUse"><stop offset="0" stop-color="#fff"/><stop offset="0" stop-color="#fdfdfd"/><stop offset="0" stop-color="#e2e2e2"/><stop offset="0" stop-color="#d2d2d2"/><stop offset="0" stop-color="#ccc"/><stop offset="0.26" stop-color="#d2d2d2"/><stop offset="0.6" stop-color="#e2e2e2"/><stop offset="0.98" stop-color="#fdfdfd"/><stop offset="1" stop-color="#fff"/></linearGradient></defs><title>Fits image 2B V4 - SVG image double no text long</title><g id="Content"><rect class="cls-1" x="19" y="256.42" width="598" height="85.58"/><rect class="cls-2" x="10" y="145.63" width="94.5" height="195.5"/><rect class="cls-3" x="9.22" y="63.63" width="95.78" height="42.4"/><line class="cls-4" x1="57.72" y1="63.63" x2="57.72" y2="35.63"/><line class="cls-4" x1="10.22" y1="35.13" x2="103.22" y2="35.13"/><line class="cls-4" x1="10.22" y1="64.13" x2="103.22" y2="64.13"/><line class="cls-4" x1="10.22" y1="106.13" x2="105.5" y2="106.13"/><line class="cls-4" x1="23.22" y1="35.13" x2="35.22" y2="21.13"/><line class="cls-4" x1="43.22" y1="35.13" x2="55.22" y2="21.13"/><line class="cls-4" x1="63.22" y1="35.13" x2="75.22" y2="21.13"/><line class="cls-4" x1="83.22" y1="35.13" x2="95.22" y2="21.13"/><rect class="cls-5" x="10.05" y="106.25" width="94.65" height="34.77" rx="12"/><rect class="cls-6" x="10.05" y="106.25" width="94.65" height="34.77" rx="12"/><rect class="cls-7" x="10.05" y="214.56" width="94.65" height="41.85" rx="12"/><rect class="cls-6" x="10.05" y="214.56" width="94.65" height="41.85" rx="12"/><rect class="cls-8" x="10.05" y="120.13" width="94.65" height="34.77" rx="12"/><rect class="cls-8" x="10.05" y="205.63" width="94.65" height="38.13" rx="12"/><line class="cls-6" x1="21.35" y1="84.13" x2="21.35" y2="100.2"/><polygon points="19.9 99.21 21.35 104.63 22.81 99.21 19.9 99.21"/><line class="cls-6" x1="21.35" y1="142.63" x2="21.35" y2="126.56"/><polygon points="22.81 127.55 21.35 122.13 19.9 127.55 22.81 127.55"/><line class="cls-6" x1="21.35" y1="221.13" x2="21.35" y2="237.2"/><polygon points="19.9 236.21 21.35 241.63 22.81 236.21 19.9 236.21"/><line class="cls-6" x1="21.35" y1="277.63" x2="21.35" y2="261.56"/><polygon points="22.81 262.55 21.35 257.13 19.9 262.55 22.81 262.55"/><line class="cls-9" x1="137.26" y1="107.03" x2="583.57" y2="107.03"/><line class="cls-9" x1="136.83" y1="245.03" x2="584" y2="245.03"/><line class="cls-10" x1="121.35" y1="119.83" x2="583.14" y2="119.83"/><line class="cls-11" x1="121.35" y1="256.23" x2="584" y2="256.23"/><rect class="cls-12" x="152.35" y="59.03" width="7" height="24"/><rect class="cls-13" x="171.67" y="72.63" width="7" height="25.6"/><rect class="cls-13" x="191.49" y="81.43" width="7" height="16.8"/><rect class="cls-13" x="211.3" y="37.43" width="7" height="69.6"/><rect class="cls-13" x="231.12" y="46.23" width="7" height="61.6"/><rect class="cls-13" x="250.93" y="70.23" width="7" height="36.8"/><rect class="cls-13" x="270.75" y="82.23" width="7" height="24.8"/><rect class="cls-13" x="290.56" y="91.03" width="7" height="16"/><rect class="cls-14" x="310.38" y="95.83" width="7" height="23.2"/><rect class="cls-15" x="330.2" y="97.43" width="7" height="16"/><rect class="cls-15" x="350.01" y="95.83" width="7" height="24.8"/><rect class="cls-15" x="370.83" y="100.63" width="7" height="16.8"/><rect class="cls-15" x="390.64" y="99.83" width="7" height="25.6"/><rect class="cls-15" x="411.46" y="104.63" width="7" height="16.8"/><rect class="cls-15" x="431.28" y="107.83" width="7" height="24.8"/><rect class="cls-15" x="451.09" y="110.23" width="7" height="16.8"/><rect class="cls-16" x="470.91" y="115.83" width="7" height="24.8"/><rect class="cls-17" x="490.72" y="119.83" width="7" height="15.2"/><rect class="cls-17" x="511.54" y="125.43" width="7" height="24.8"/><rect class="cls-17" x="531.35" y="127.03" width="7" height="16"/><rect class="cls-13" x="152.35" y="269.83" width="7" height="16"/><rect class="cls-13" x="171.67" y="254.63" width="7" height="16.8"/><rect class="cls-13" x="191.49" y="254.63" width="7" height="12"/><rect class="cls-12" x="211.3" y="244.23" width="7" height="38.4"/><rect class="cls-15" x="231.12" y="245.03" width="7" height="16"/><rect class="cls-15" x="250.93" y="245.03" width="7" height="9.6"/><rect class="cls-15" x="270.75" y="233.03" width="7" height="16.8"/><rect class="cls-15" x="290.56" y="238.63" width="7" height="11.2"/><rect class="cls-14" x="310.38" y="236.23" width="7" height="16.8"/><rect class="cls-15" x="330.2" y="239.43" width="7" height="10.4"/><rect class="cls-17" x="350.01" y="224.23" width="7" height="17.6"/><rect class="cls-17" x="370.83" y="230.63" width="7" height="11.2"/><rect class="cls-17" x="390.64" y="218.63" width="7" height="16.8"/><rect class="cls-17" x="411.46" y="224.23" width="7" height="11.2"/><rect class="cls-16" x="431.28" y="209.83" width="7" height="16.8"/><rect class="cls-17" x="451.09" y="215.43" width="7" height="11.2"/><rect class="cls-17" x="470.91" y="193.03" width="7" height="24.8"/><rect class="cls-17" x="490.72" y="201.83" width="7" height="16.8"/><rect class="cls-17" x="511.54" y="185.83" width="7" height="24.8"/><rect class="cls-17" x="531.35" y="194.63" width="7" height="16"/><text class="cls-18" transform="translate(150.69 130.45)">F7</text><text class="cls-18" transform="translate(168.8 130.45)">G7</text><text class="cls-18" transform="translate(188.75 130.45)">G6</text><text class="cls-18" transform="translate(206.19 130.45)">H10</text><text class="cls-18" transform="translate(228.92 130.45)">H9</text><text class="cls-18" transform="translate(248.87 130.45)">H8</text><text class="cls-18" transform="translate(268.81 130.45)">H7</text><text class="cls-18" transform="translate(288.76 130.45)">H6</text><text class="cls-18" transform="translate(309.82 130.45)">J7</text><text class="cls-18" transform="translate(329.77 130.45)">J6</text><text class="cls-18" transform="translate(346.38 130.45)">JS7</text><text class="cls-18" transform="translate(367.33 130.45)">JS6</text><text class="cls-18" transform="translate(389.77 137.45)">K7</text><text class="cls-18" transform="translate(410.72 135.45)">K6</text><text class="cls-18" transform="translate(429.84 143.45)">M7</text><text class="cls-18" transform="translate(449.79 139.45)">M6</text><text class="cls-18" transform="translate(470.29 152.45)">N7</text><text class="cls-18" transform="translate(490.23 146.45)">N6</text><text class="cls-18" transform="translate(511.46 160.45)">P7</text><text class="cls-18" transform="translate(531.41 157.45)">P6</text><text class="cls-18" transform="translate(151.68 240.45)">f6</text><text class="cls-18" transform="translate(169.61 240.45)">g6</text><text class="cls-18" transform="translate(189.42 240.45)">g5</text><text class="cls-18" transform="translate(209.24 240.45)">h8</text><text class="cls-18" transform="translate(229.06 240.45)">h6</text><text class="cls-18" transform="translate(248.87 240.45)">h5</text><text class="cls-18" transform="translate(270.36 225.45)">j6</text><text class="cls-18" transform="translate(290.17 230.45)">j5</text><text class="cls-18" transform="translate(307.49 230.45)">js6</text><text class="cls-18" transform="translate(327.3 230.45)">js5</text><text class="cls-18" transform="translate(348.23 218.45)">k6</text><text class="cls-18" transform="translate(369.05 225.45)">k5</text><text class="cls-18" transform="translate(387.2 213.45)">m6</text><text class="cls-18" transform="translate(408.01 217.45)">m5</text><text class="cls-18" transform="translate(429.21 206.45)">n6</text><text class="cls-18" transform="translate(449.03 211.45)">n5</text><text class="cls-18" transform="translate(468.85 187.45)">p7</text><text class="cls-18" transform="translate(488.66 195.45)">p6</text><text class="cls-18" transform="translate(510.59 180.45)">r7</text><text class="cls-18" transform="translate(530.41 191.45)">r6</text><rect class="cls-17" x="551.35" y="178.83" width="7" height="24.8"/><text class="cls-18" transform="translate(549.57 173.45)">s7</text><rect class="cls-17" x="571.35" y="187.63" width="7" height="16"/><text class="cls-18" transform="translate(569.57 184.45)">s6</text><text class="cls-19" transform="translate(123.85 111.01)">0</text><text class="cls-19" transform="translate(123.85 249.01)">0</text><line class="cls-20" x1="147.67" y1="26.13" x2="294.54" y2="26.13"/><polygon class="cls-21" points="150.15 29.19 150.66 28.64 147.96 26.13 150.66 23.61 150.15 23.06 146.85 26.13 150.15 29.19"/><polygon class="cls-21" points="292.06 29.19 291.54 28.64 294.25 26.13 291.54 23.61 292.06 23.06 295.35 26.13 292.06 29.19"/><line class="cls-20" x1="310.67" y1="26.13" x2="453.54" y2="26.13"/><polygon class="cls-21" points="313.15 29.19 313.66 28.64 310.95 26.13 313.66 23.61 313.15 23.06 309.85 26.13 313.15 29.19"/><polygon class="cls-21" points="451.06 29.19 450.54 28.64 453.25 26.13 450.54 23.61 451.06 23.06 454.35 26.13 451.06 29.19"/><line class="cls-20" x1="475.67" y1="26.13" x2="535.54" y2="26.13"/><polygon class="cls-21" points="478.15 29.19 478.66 28.64 475.96 26.13 478.66 23.61 478.15 23.06 474.85 26.13 478.15 29.19"/><polygon class="cls-21" points="533.06 29.19 532.54 28.64 535.25 26.13 532.54 23.61 533.06 23.06 536.35 26.13 533.06 29.19"/><line class="cls-20" x1="149.67" y1="297.13" x2="214.54" y2="297.13"/><polygon class="cls-21" points="152.15 300.19 152.66 299.64 149.96 297.13 152.66 294.61 152.15 294.06 148.85 297.13 152.15 300.19"/><polygon class="cls-21" points="212.06 300.19 211.54 299.64 214.25 297.13 211.54 294.61 212.06 294.06 215.35 297.13 212.06 300.19"/><line class="cls-20" x1="236.67" y1="297.13" x2="332.54" y2="297.13"/><polygon class="cls-21" points="239.15 300.19 239.66 299.64 236.96 297.13 239.66 294.61 239.15 294.06 235.85 297.13 239.15 300.19"/><polygon class="cls-21" points="330.06 300.19 329.54 299.64 332.25 297.13 329.54 294.61 330.06 294.06 333.35 297.13 330.06 300.19"/><line class="cls-20" x1="351.67" y1="297.13" x2="577.69" y2="297.13"/><polygon class="cls-21" points="354.15 300.19 354.66 299.64 351.96 297.13 354.66 294.61 354.15 294.06 350.85 297.13 354.15 300.19"/><polygon class="cls-21" points="575.2 300.19 574.69 299.64 577.4 297.13 574.69 294.61 575.2 294.06 578.5 297.13 575.2 300.19"/><rect class="cls-23" x="10.5" y="316.63" width="93" height="25.5"/><rect class="cls-2" x="602" y="145.63" width="94.5" height="195.5"/><rect class="cls-3" x="601.22" y="63.63" width="95.78" height="42.4"/><line class="cls-4" x1="649.72" y1="63.63" x2="649.72" y2="35.63"/><line class="cls-4" x1="602.22" y1="35.13" x2="695.22" y2="35.13"/><line class="cls-4" x1="602.22" y1="64.13" x2="695.22" y2="64.13"/><line class="cls-4" x1="602.22" y1="106.13" x2="697.5" y2="106.13"/><line class="cls-4" x1="610.22" y1="35.13" x2="622.22" y2="21.13"/><line class="cls-4" x1="635.22" y1="35.13" x2="647.22" y2="21.13"/><line class="cls-4" x1="655.22" y1="35.13" x2="667.22" y2="21.13"/><line class="cls-4" x1="675.22" y1="35.13" x2="687.22" y2="21.13"/><rect class="cls-5" x="602.05" y="106.25" width="94.65" height="34.77" rx="12"/><rect class="cls-6" x="602.05" y="106.25" width="94.65" height="34.77" rx="12"/><rect class="cls-7" x="602.05" y="214.56" width="94.65" height="41.85" rx="12"/><rect class="cls-6" x="602.05" y="214.56" width="94.65" height="41.85" rx="12"/><rect class="cls-8" x="602.05" y="120.13" width="94.65" height="34.77" rx="12"/><rect class="cls-8" x="602.05" y="205.63" width="94.65" height="38.13" rx="12"/><rect class="cls-23" x="603" y="316.63" width="93" height="25.5"/></g></svg>