<?xml version="1.0" encoding="UTF-8" standalone="no"?>
<svg xmlns="http://www.w3.org/2000/svg" xmlns:xlink="http://www.w3.org/1999/xlink" contentStyleType="text/css" height="830.2px" preserveAspectRatio="none" style="width:584px;height:830px;background:#FFFFFF;" version="1.1" viewBox="0 0 584 830" width="584.5px" zoomAndPan="magnify"><defs/><g><rect height="18.4078" style="stroke:#00000000;stroke-width:0.6999999999999998;fill:none;" width="151.2" x="211.75" y="3.5"/><text fill="#000000" font-family="sans-serif" font-size="9.8" font-weight="bold" lengthAdjust="spacing" textLength="144.2" x="215.25" y="16.0966">Data transfer FRIImaging</text><!--MD5=[33638f205ff911b2d5a712931a8a54a8]
cluster MOTOR--><g id="cluster_MOTOR"><path d="M15.75,30.3078 L144.55,30.3078 A2.625,2.625 0 0 1 146.3,32.0578 L151.2,57.3234 L273.35,57.3234 A1.75,1.75 0 0 1 275.1,59.0734 L275.1,130.7578 A1.75,1.75 0 0 1 273.35,132.5078 L15.75,132.5078 A1.75,1.75 0 0 1 14,130.7578 L14,32.0578 A1.75,1.75 0 0 1 15.75,30.3078 " style="stroke:#000000;stroke-width:1.0499999999999998;fill:none;"/><line style="stroke:#000000;stroke-width:1.0499999999999998;fill:none;" x1="14" x2="151.2" y1="57.3234" y2="57.3234"/><text fill="#000000" font-family="sans-serif" font-size="9.8" font-weight="bold" lengthAdjust="spacing" textLength="128.1" x="16.8" y="40.8044">Motor Slave Controller</text><text fill="#000000" font-family="sans-serif" font-size="9.8" font-weight="bold" lengthAdjust="spacing" textLength="66.5" x="49.35" y="52.2122">1 data item</text></g><!--MD5=[6472c6fe87a2a66aeb43212bb1081896]
cluster IMU--><g id="cluster_IMU"><path d="M65.45,261.3078 L192.85,261.3078 A2.625,2.625 0 0 1 194.6,263.0578 L199.5,288.3234 L577.85,288.3234 A1.75,1.75 0 0 1 579.6,290.0734 L579.6,524.8578 A1.75,1.75 0 0 1 577.85,526.6078 L65.45,526.6078 A1.75,1.75 0 0 1 63.7,524.8578 L63.7,263.0578 A1.75,1.75 0 0 1 65.45,261.3078 " style="stroke:#000000;stroke-width:1.0499999999999998;fill:none;"/><line style="stroke:#000000;stroke-width:1.0499999999999998;fill:none;" x1="63.7" x2="199.5" y1="288.3234" y2="288.3234"/><text fill="#000000" font-family="sans-serif" font-size="9.8" font-weight="bold" lengthAdjust="spacing" textLength="126.7" x="66.5" y="271.8044">IMU Master Calculator</text><text fill="#000000" font-family="sans-serif" font-size="9.8" font-weight="bold" lengthAdjust="spacing" textLength="79.8" x="91.7" y="283.2122">13 data items</text></g><!--MD5=[340620b06b32e5f4a34f72beeec9db79]
cluster AHRS--><g id="cluster_AHRS"><rect height="102.2" rx="1.75" ry="1.75" style="stroke:#181818;stroke-width:0.6999999999999998;fill:none;" width="353.5" x="86.1" y="402.0078"/><path d="M162.4,402.0078 L162.4,408.5156 L155.4,415.5156 L86.1,415.5156 " fill="none" style="stroke:#181818;stroke-width:0.6999999999999998;"/><text fill="#000000" font-family="sans-serif" font-size="9.8" font-weight="bold" lengthAdjust="spacing" textLength="69.3" x="88.2" y="411.8044">AHRS fusion</text></g><!--MD5=[d3a3e034e8cd644b42bedcd04d8e1148]
cluster COMP--><g id="cluster_COMP"><polygon points="11.2,662.4078,18.2,655.4078,311.5,655.4078,311.5,811.5078,304.5,818.5078,11.2,818.5078,11.2,662.4078" style="stroke:#181818;stroke-width:0.6999999999999998;fill:none;"/><line style="stroke:#181818;stroke-width:0.6999999999999998;fill:none;" x1="304.5" x2="311.5" y1="662.4078" y2="655.4078"/><line style="stroke:#181818;stroke-width:0.6999999999999998;fill:none;" x1="11.2" x2="304.5" y1="662.4078" y2="662.4078"/><line style="stroke:#181818;stroke-width:0.6999999999999998;fill:none;" x1="304.5" x2="304.5" y1="662.4078" y2="818.5078"/><text fill="#000000" font-family="sans-serif" font-size="9.8" font-weight="bold" lengthAdjust="spacing" textLength="55.3" x="130.9" y="673.6044">Computer</text></g><!--MD5=[e169ac431914a6adb8cf110c9da1459f]
cluster DB--><g id="cluster_DB"><path d="M167.3,696.0078 C167.3,689.0078 231,689.0078 231,689.0078 C231,689.0078 294.7,689.0078 294.7,696.0078 L294.7,794.7078 C294.7,801.7078 231,801.7078 231,801.7078 C231,801.7078 167.3,801.7078 167.3,794.7078 L167.3,696.0078 " style="stroke:#181818;stroke-width:0.6999999999999998;fill:none;"/><path d="M167.3,696.0078 C167.3,703.0078 231,703.0078 231,703.0078 C231,703.0078 294.7,703.0078 294.7,696.0078 " fill="none" style="stroke:#181818;stroke-width:0.6999999999999998;"/><text fill="#000000" font-family="sans-serif" font-size="9.8" font-weight="bold" lengthAdjust="spacing" textLength="62.3" x="199.85" y="713.5044">RedCentral</text><text fill="#000000" font-family="sans-serif" font-size="9.8" font-weight="bold" lengthAdjust="spacing" textLength="37.8" x="212.1" y="724.9122">MySQL</text><text fill="#000000" font-family="sans-serif" font-size="9.8" font-weight="bold" lengthAdjust="spacing" textLength="53.9" x="204.05" y="736.32">Database</text></g><!--MD5=[8babac4edb5b28c81ec42863ab87a1e9]
entity MO_POS--><g id="elem_MO_POS"><rect fill="#C2F0FF" height="55.2234" rx="1.75" ry="1.75" style="stroke:#181818;stroke-width:0.3499999999999999;" width="101.5" x="162.05" y="66.0078"/><rect fill="#C2F0FF" height="7" style="stroke:#181818;stroke-width:0.3499999999999999;" width="10.5" x="249.55" y="69.5078"/><rect fill="#C2F0FF" height="1.4" style="stroke:#181818;stroke-width:0.3499999999999999;" width="2.8" x="248.15" y="70.9078"/><rect fill="#C2F0FF" height="1.4" style="stroke:#181818;stroke-width:0.3499999999999999;" width="2.8" x="248.15" y="73.7078"/><text fill="#000000" font-family="sans-serif" font-size="9.8" font-style="italic" lengthAdjust="spacing" textLength="35" x="191.8" y="89.1044">«data»</text><text fill="#000000" font-family="sans-serif" font-size="9.8" lengthAdjust="spacing" textLength="73.5" x="172.55" y="100.5122">Motor Position</text><text fill="#000000" font-family="sans-serif" font-size="9.8" lengthAdjust="spacing" textLength="40.6" x="175.35" y="111.92">1 uint32</text></g><!--MD5=[5ff026264ac87041113dabe194864bb3]
entity MO_COM--><g id="elem_MO_COM"><rect fill="#F5F5DC" height="55.2234" rx="1.75" ry="1.75" style="stroke:#181818;stroke-width:0.3499999999999999;" width="112" x="25.2" y="66.0078"/><rect fill="#F5F5DC" height="7" style="stroke:#181818;stroke-width:0.3499999999999999;" width="10.5" x="123.2" y="69.5078"/><rect fill="#F5F5DC" height="1.4" style="stroke:#181818;stroke-width:0.3499999999999999;" width="2.8" x="121.8" y="70.9078"/><rect fill="#F5F5DC" height="1.4" style="stroke:#181818;stroke-width:0.3499999999999999;" width="2.8" x="121.8" y="73.7078"/><text fill="#000000" font-family="sans-serif" font-size="9.8" lengthAdjust="spacing" textLength="84" x="35.7" y="89.1044">Motor Command</text><text fill="#000000" font-family="sans-serif" font-size="9.8" lengthAdjust="spacing" textLength="2.8" x="35.7" y="100.5122"> </text><text fill="#000000" font-family="sans-serif" font-size="9.8" lengthAdjust="spacing" textLength="40.6" x="38.5" y="111.92">1 uint32</text></g><!--MD5=[d1b2d4260ec1427f58c4fbf06eba6674]
entity IMU_eul--><g id="elem_IMU_eul"><rect fill="#C2F0FF" height="55.2234" rx="1.75" ry="1.75" style="stroke:#181818;stroke-width:0.3499999999999999;" width="81.2" x="303.8" y="297.0078"/><rect fill="#C2F0FF" height="7" style="stroke:#181818;stroke-width:0.3499999999999999;" width="10.5" x="371" y="300.5078"/><rect fill="#C2F0FF" height="1.4" style="stroke:#181818;stroke-width:0.3499999999999999;" width="2.8" x="369.6" y="301.9078"/><rect fill="#C2F0FF" height="1.4" style="stroke:#181818;stroke-width:0.3499999999999999;" width="2.8" x="369.6" y="304.7078"/><text fill="#000000" font-family="sans-serif" font-size="9.8" font-style="italic" lengthAdjust="spacing" textLength="35" x="323.4" y="320.1044">«data»</text><text fill="#000000" font-family="sans-serif" font-size="9.8" lengthAdjust="spacing" textLength="53.2" x="314.3" y="331.5122">EulerR-P-Y</text><text fill="#000000" font-family="sans-serif" font-size="9.8" lengthAdjust="spacing" textLength="44.8" x="317.1" y="342.92">3 float32</text></g><!--MD5=[cf750cc23b83e4c5f8c9ec5e74744d57]
entity IMU_time--><g id="elem_IMU_time"><rect fill="#C2F0FF" height="55.2234" rx="1.75" ry="1.75" style="stroke:#181818;stroke-width:0.3499999999999999;" width="71.4" x="207.9" y="297.0078"/><rect fill="#C2F0FF" height="7" style="stroke:#181818;stroke-width:0.3499999999999999;" width="10.5" x="265.3" y="300.5078"/><rect fill="#C2F0FF" height="1.4" style="stroke:#181818;stroke-width:0.3499999999999999;" width="2.8" x="263.9" y="301.9078"/><rect fill="#C2F0FF" height="1.4" style="stroke:#181818;stroke-width:0.3499999999999999;" width="2.8" x="263.9" y="304.7078"/><text fill="#000000" font-family="sans-serif" font-size="9.8" font-style="italic" lengthAdjust="spacing" textLength="35" x="222.6" y="320.1044">«data»</text><text fill="#000000" font-family="sans-serif" font-size="9.8" lengthAdjust="spacing" textLength="34.3" x="218.4" y="331.5122">Timing</text><text fill="#000000" font-family="sans-serif" font-size="9.8" lengthAdjust="spacing" textLength="40.6" x="221.2" y="342.92">1 uint32</text></g><!--MD5=[4697a881d6d4b7e218439cec82aeabcb]
entity IMU_MOPOS--><g id="elem_IMU_MOPOS"><rect fill="#F0F8FF" height="55.2234" rx="1.75" ry="1.75" style="stroke:#181818;stroke-width:0.3499999999999999;" width="101.5" x="81.55" y="297.0078"/><rect fill="#F0F8FF" height="7" style="stroke:#181818;stroke-width:0.3499999999999999;" width="10.5" x="169.05" y="300.5078"/><rect fill="#F0F8FF" height="1.4" style="stroke:#181818;stroke-width:0.3499999999999999;" width="2.8" x="167.65" y="301.9078"/><rect fill="#F0F8FF" height="1.4" style="stroke:#181818;stroke-width:0.3499999999999999;" width="2.8" x="167.65" y="304.7078"/><text fill="#000000" font-family="sans-serif" font-size="9.8" font-style="italic" lengthAdjust="spacing" textLength="36.4" x="110.6" y="320.1044">«copy»</text><text fill="#000000" font-family="sans-serif" font-size="9.8" lengthAdjust="spacing" textLength="73.5" x="92.05" y="331.5122">Motor Position</text><text fill="#000000" font-family="sans-serif" font-size="9.8" lengthAdjust="spacing" textLength="40.6" x="94.85" y="342.92">1 uint32</text></g><!--MD5=[1564b4186e3c8a6a3cb5a701ab9eef48]
entity IMU_COM--><g id="elem_IMU_COM"><rect fill="#F5F5DC" height="55.2234" rx="1.75" ry="1.75" style="stroke:#181818;stroke-width:0.3499999999999999;" width="112" x="456.4" y="432.1078"/><rect fill="#F5F5DC" height="7" style="stroke:#181818;stroke-width:0.3499999999999999;" width="10.5" x="554.4" y="435.6078"/><rect fill="#F5F5DC" height="1.4" style="stroke:#181818;stroke-width:0.3499999999999999;" width="2.8" x="553" y="437.0078"/><rect fill="#F5F5DC" height="1.4" style="stroke:#181818;stroke-width:0.3499999999999999;" width="2.8" x="553" y="439.8078"/><text fill="#000000" font-family="sans-serif" font-size="9.8" lengthAdjust="spacing" textLength="84" x="466.9" y="455.2044">Motor Command</text><text fill="#000000" font-family="sans-serif" font-size="9.8" lengthAdjust="spacing" textLength="2.8" x="466.9" y="466.6122"> </text><text fill="#000000" font-family="sans-serif" font-size="9.8" lengthAdjust="spacing" textLength="40.6" x="469.7" y="478.02">1 uint32</text></g><!--MD5=[23eb62cc3d4ce14995cf488bd212f33a]
entity IMU_acc--><g id="elem_IMU_acc"><rect fill="#C2F0FF" height="55.2234" rx="1.75" ry="1.75" style="stroke:#181818;stroke-width:0.3499999999999999;" width="84" x="116.2" y="432.1078"/><rect fill="#C2F0FF" height="7" style="stroke:#181818;stroke-width:0.3499999999999999;" width="10.5" x="186.2" y="435.6078"/><rect fill="#C2F0FF" height="1.4" style="stroke:#181818;stroke-width:0.3499999999999999;" width="2.8" x="184.8" y="437.0078"/><rect fill="#C2F0FF" height="1.4" style="stroke:#181818;stroke-width:0.3499999999999999;" width="2.8" x="184.8" y="439.8078"/><text fill="#000000" font-family="sans-serif" font-size="9.8" font-style="italic" lengthAdjust="spacing" textLength="35" x="137.2" y="455.2044">«data»</text><text fill="#000000" font-family="sans-serif" font-size="9.8" lengthAdjust="spacing" textLength="56" x="126.7" y="466.6122">AccelX-Y-Z</text><text fill="#000000" font-family="sans-serif" font-size="9.8" lengthAdjust="spacing" textLength="40.6" x="129.5" y="478.02">3 uint32</text></g><!--MD5=[0fd6c892c8b015d59a7b4354011464df]
entity IMU_gyr--><g id="elem_IMU_gyr"><rect fill="#C2F0FF" height="55.2234" rx="1.75" ry="1.75" style="stroke:#181818;stroke-width:0.3499999999999999;" width="85.4" x="224.7" y="432.1078"/><rect fill="#C2F0FF" height="7" style="stroke:#181818;stroke-width:0.3499999999999999;" width="10.5" x="296.1" y="435.6078"/><rect fill="#C2F0FF" height="1.4" style="stroke:#181818;stroke-width:0.3499999999999999;" width="2.8" x="294.7" y="437.0078"/><rect fill="#C2F0FF" height="1.4" style="stroke:#181818;stroke-width:0.3499999999999999;" width="2.8" x="294.7" y="439.8078"/><text fill="#000000" font-family="sans-serif" font-size="9.8" font-style="italic" lengthAdjust="spacing" textLength="35" x="246.4" y="455.2044">«data»</text><text fill="#000000" font-family="sans-serif" font-size="9.8" lengthAdjust="spacing" textLength="57.4" x="235.2" y="466.6122">GyrosX-Y-Z</text><text fill="#000000" font-family="sans-serif" font-size="9.8" lengthAdjust="spacing" textLength="40.6" x="238" y="478.02">3 uint32</text></g><!--MD5=[b86c0fc89ea9e66a0a3a1d6b2f8503af]
entity IMU_mag--><g id="elem_IMU_mag"><rect fill="#C2F0FF" height="55.2234" rx="1.75" ry="1.75" style="stroke:#181818;stroke-width:0.3499999999999999;" width="88.2" x="334.6" y="432.1078"/><rect fill="#C2F0FF" height="7" style="stroke:#181818;stroke-width:0.3499999999999999;" width="10.5" x="408.8" y="435.6078"/><rect fill="#C2F0FF" height="1.4" style="stroke:#181818;stroke-width:0.3499999999999999;" width="2.8" x="407.4" y="437.0078"/><rect fill="#C2F0FF" height="1.4" style="stroke:#181818;stroke-width:0.3499999999999999;" width="2.8" x="407.4" y="439.8078"/><text fill="#000000" font-family="sans-serif" font-size="9.8" font-style="italic" lengthAdjust="spacing" textLength="35" x="357.7" y="455.2044">«data»</text><text fill="#000000" font-family="sans-serif" font-size="9.8" lengthAdjust="spacing" textLength="60.2" x="345.1" y="466.6122">MagntX-Y-Z</text><text fill="#000000" font-family="sans-serif" font-size="9.8" lengthAdjust="spacing" textLength="40.6" x="347.9" y="478.02">3 uint32</text></g><!--MD5=[5990a96010aa142ffb8de6a6123d9f04]
entity BIN_DATA--><g id="elem_BIN_DATA"><rect fill="#F1F1F1" height="25.4078" rx="24.5" ry="24.5" style="stroke:#181818;stroke-width:0.3499999999999999;" width="92.4" x="22.4" y="755.8578"/><text fill="#000000" font-family="sans-serif" font-size="9.8" lengthAdjust="spacing" textLength="78.4" x="29.4" y="771.9544">Binary Data File</text></g><!--MD5=[9bfe7dfb833883a34b3e5394ec067d2c]
entity SESSION--><g id="elem_SESSION"><rect fill="#F5F5DC" height="43.8156" rx="1.75" ry="1.75" style="stroke:#181818;stroke-width:0.3499999999999999;" width="105" x="178.5" y="746.4078"/><rect fill="#F5F5DC" height="7" style="stroke:#181818;stroke-width:0.3499999999999999;" width="10.5" x="269.5" y="749.9078"/><rect fill="#F5F5DC" height="1.4" style="stroke:#181818;stroke-width:0.3499999999999999;" width="2.8" x="268.1" y="751.3078"/><rect fill="#F5F5DC" height="1.4" style="stroke:#181818;stroke-width:0.3499999999999999;" width="2.8" x="268.1" y="754.1078"/><text fill="#000000" font-family="sans-serif" font-size="9.8" lengthAdjust="spacing" textLength="77" x="189" y="769.5044">Session related</text><text fill="#000000" font-family="sans-serif" font-size="9.8" lengthAdjust="spacing" textLength="70.7" x="189" y="780.9122">file identifiers</text></g><!--MD5=[77e2a8891fed626e48810db2111b5d65]
entity UART--><g id="elem_UART"><ellipse cx="163.1" cy="196.9078" fill="#F1F1F1" rx="5.6" ry="5.6" style="stroke:#181818;stroke-width:0.3499999999999999;"/><text fill="#000000" font-family="sans-serif" font-size="9.8" lengthAdjust="spacing" textLength="64.4" x="130.9" y="217.9044">SERIAL UART</text></g><!--MD5=[6adf806993c4fed3f755089b7e3c05bf]
entity USB--><g id="elem_USB"><ellipse cx="68.6" cy="591.0078" fill="#F1F1F1" rx="5.6" ry="5.6" style="stroke:#181818;stroke-width:0.3499999999999999;"/><text fill="#000000" font-family="sans-serif" font-size="9.8" lengthAdjust="spacing" textLength="44.8" x="46.2" y="612.0044">USB port</text></g><!--MD5=[e2a5bedd011dbec2db06f375f7f1d372]
link MO_POS to UART--><g id="link_MO_POS_UART"><path d="M199.612,121.3848 C188.9622,143.208 174.6178,172.6045 167.4939,187.203 " fill="none" id="MO_POS-to-UART" style="stroke:#181818;stroke-width:0.6999999999999998;stroke-dasharray:7.0,7.0;"/><polygon fill="#181818" points="165.9259,190.4167,171.2055,185.9832,167.4611,187.2714,166.1729,183.5269,165.9259,190.4167" style="stroke:#181818;stroke-width:0.6999999999999998;"/><text fill="#000000" font-family="sans-serif" font-size="9.1" lengthAdjust="spacing" textLength="35.7" x="188.3" y="152.8546">transfer</text></g><!--MD5=[b74869f187a1f26c83ed1a67c58c9756]
link UART to IMU_MOPOS--><g id="link_UART_IMU_MOPOS"><path d="M161.6965,203.3653 C157.8892,218.9844 147.1554,263.0158 139.7697,293.316 " fill="none" id="UART-to-IMU_MOPOS" style="stroke:#181818;stroke-width:0.6999999999999998;stroke-dasharray:7.0,7.0;"/><polygon fill="#181818" points="138.9311,296.7558,143.1438,291.2984,139.7602,293.3554,137.7032,289.9718,138.9311,296.7558" style="stroke:#181818;stroke-width:0.6999999999999998;"/><text fill="#000000" font-family="sans-serif" font-size="9.1" lengthAdjust="spacing" textLength="35.7" x="154" y="247.3546">transfer</text></g><!--MD5=[986716b414735fa5cc90c69c4de10e30]
reverse link MO_COM to UART--><g id="link_MO_COM_UART"><path d="M107.4948,127.0548 C125.8656,149.9028 148.7689,178.3858 158.4436,190.4167 " fill="none" id="MO_COM-backto-UART" style="stroke:#181818;stroke-width:0.6999999999999998;"/><path d="M99.6718,126.7751 A6.3,6.3 0 0 0 108.8959 119.3518" fill="none" style="stroke:#181818;stroke-width:1.0499999999999998;"/><text fill="#000000" font-family="sans-serif" font-size="9.1" lengthAdjust="spacing" textLength="30.8" x="130.2" y="152.8546">control</text></g><!--MD5=[b0d3d1e6cd94c956d8a0c29f90f09136]
link IMU_eul to IMU_COM--><g id="link_IMU_eul_IMU_COM"><path d="M365.1536,352.3232 C375.7005,364.1959 389.4786,377.2327 404.6,385.2078 C416.3656,391.4133 422.0356,384.995 434,390.8078 C453.1737,400.1234 471.3457,415.3736 485.3576,429.0978 " fill="none" id="IMU_eul-to-IMU_COM" style="stroke:#181818;stroke-width:0.6999999999999998;"/><polygon fill="#181818" points="488.1037,431.8201,485.6003,425.3965,485.6179,429.3563,481.6581,429.3739,488.1037,431.8201" style="stroke:#181818;stroke-width:0.6999999999999998;"/><text fill="#000000" font-family="sans-serif" font-size="9.1" lengthAdjust="spacing" textLength="49" x="405.3" y="382.4546">conversion</text></g><!--MD5=[c26a6363c7aaf935ec42e76b8be1f493]
reverse link UART to IMU_COM--><g id="link_UART_IMU_COM"><path d="M173.1212,197.4055 C207.9322,197.2095 325.4139,200.8474 397.6,255.7078 C457.6362,301.3345 491.0346,388.0071 504.8106,431.9944 " fill="none" id="UART-backto-IMU_COM" style="stroke:#181818;stroke-width:0.6999999999999998;"/><polygon fill="#181818" points="169.4721,197.4426,175.8006,200.1777,172.9719,197.4066,175.743,194.578,169.4721,197.4426" style="stroke:#181818;stroke-width:0.6999999999999998;"/><text fill="#000000" font-family="sans-serif" font-size="9.1" lengthAdjust="spacing" textLength="30.8" x="472.5" y="327.8546">control</text></g><!--MD5=[938d602b9867b463c69f9bc16cd71b3d]
reverse link IMU_eul to AHRS--><g id="link_IMU_eul_AHRS"><path d="M300.3056,349.0507 C297.4944,350.2302 294.6783,351.3292 291.9,352.3078 C211.9075,380.4877 164.6491,330.5175 105,390.8078 C102.3256,393.511 100.1079,396.5824 98.2751,399.8902 C98.046,400.3037 97.823,400.7209 97.6058,401.1415 C97.4972,401.3519 97.39,401.563 97.2843,401.775 " fill="none" id="IMU_eul-backto-AHRS" style="stroke:#181818;stroke-width:0.6999999999999998;"/><polygon fill="#181818" points="303.5998,347.6311,296.706,347.5529,300.3855,349.0162,298.9222,352.6957,303.5998,347.6311" style="stroke:#181818;stroke-width:0.6999999999999998;"/></g><!--MD5=[1603f688ffd5bb241544167432e32bdd]
link IMU_acc to IMU_gyr--><g id="link_IMU_acc_IMU_gyr"><path d="M200.2161,459.7578 C208.3522,459.7578 216.4876,459.7578 224.623,459.7578 " fill="none" id="IMU_acc-IMU_gyr" style="stroke:#181818;stroke-width:0.6999999999999998;stroke-dasharray:7.0,7.0;"/></g><!--MD5=[b30c4d8594c17fa6aa726c13d3eb6ca4]
link IMU_gyr to IMU_mag--><g id="link_IMU_gyr_IMU_mag"><path d="M310.2246,459.7578 C318.3383,459.7578 326.452,459.7578 334.565,459.7578 " fill="none" id="IMU_gyr-IMU_mag" style="stroke:#181818;stroke-width:0.6999999999999998;stroke-dasharray:7.0,7.0;"/></g><!--MD5=[331719bd4d903b93e4c56c4f2e9cc51f]
link IMU_time to IMU_eul--><g id="link_IMU_time_IMU_eul"><path d="M279.4316,324.6578 C287.5523,324.6578 295.6737,324.6578 303.7944,324.6578 " fill="none" id="IMU_time-IMU_eul" style="stroke:#181818;stroke-width:0.6999999999999998;"/></g><!--MD5=[e1f3cd7ccbecb54c11a1310816d5a11d]
link IMU_MOPOS to IMU_time--><g id="link_IMU_MOPOS_IMU_time"><path d="M183.1676,324.6578 C191.3513,324.6578 199.535,324.6578 207.718,324.6578 " fill="none" id="IMU_MOPOS-IMU_time" style="stroke:#181818;stroke-width:0.6999999999999998;"/></g><!--MD5=[65ff7472c5680ae441a0e0a9b5d8747b]
link IMU_MOPOS to USB--><g id="link_IMU_MOPOS_USB"><path d="M81.4905,350.6971 C66.4301,360.9402 51.7445,374.3025 43.4,390.8078 C15.0459,446.8925 30.6301,470.6743 43.4,532.2078 C47.2064,550.5492 57.108,570.2115 63.3058,581.3121 " fill="none" id="IMU_MOPOS-to-USB" style="stroke:#181818;stroke-width:0.6999999999999998;"/><polygon fill="#181818" points="65.0995,584.4712,64.4241,577.6102,63.3715,581.4275,59.5542,580.375,65.0995,584.4712" style="stroke:#181818;stroke-width:0.6999999999999998;"/><text fill="#000000" font-family="sans-serif" font-size="9.1" lengthAdjust="spacing" textLength="35.7" x="44.1" y="462.9546">transfer</text></g><!--MD5=[f8ae04b058f925e4758731261852f746]
link AHRS to USB--><g id="link_AHRS_USB"><path d="M86.0158,492.4097 C84.9789,498.2386 83.8561,504.5501 82.6973,511.064 C78.0621,537.1197 72.8507,566.4133 70.2548,581.0041 " fill="none" id="AHRS-to-USB" style="stroke:#181818;stroke-width:0.6999999999999998;"/><polygon fill="#181818" points="69.6214,584.5657,73.4816,578.8535,70.2344,581.1198,67.9681,577.8727,69.6214,584.5657" style="stroke:#181818;stroke-width:0.6999999999999998;"/><text fill="#000000" font-family="sans-serif" font-size="9.1" lengthAdjust="spacing" textLength="35.7" x="78.4" y="546.9546">transfer</text></g><!--MD5=[9dc9364fbf4156a6bfbc1649a595cac6]
link USB to BIN_DATA--><g id="link_USB_BIN_DATA"><path d="M68.6,597.3659 C68.6,621.2639 68.6,714.4276 68.6,751.9595 " fill="none" id="USB-to-BIN_DATA" style="stroke:#181818;stroke-width:0.6999999999999998;"/><polygon fill="#181818" points="68.6,755.6247,71.4,749.3247,68.6,752.1247,65.8,749.3247,68.6,755.6247" style="stroke:#181818;stroke-width:0.6999999999999998;"/><text fill="#000000" font-family="sans-serif" font-size="9.1" lengthAdjust="spacing" textLength="29.4" x="69.3" y="641.4546">saving</text></g><!--MD5=[e6d61a2e4bfc80ebdc786454fe4a657a]
link SESSION to BIN_DATA--><g id="link_SESSION_BIN_DATA"><path d="M178.3243,768.4578 C159.0904,768.4578 137.41,768.4578 118.4309,768.4578 " fill="none" id="SESSION-to-BIN_DATA" style="stroke:#181818;stroke-width:0.6999999999999998;stroke-dasharray:7.0,7.0;"/><polygon fill="#181818" points="114.9197,768.4578,121.2197,771.2578,118.4197,768.4578,121.2197,765.6578,114.9197,768.4578" style="stroke:#181818;stroke-width:0.6999999999999998;"/><text fill="#000000" font-family="sans-serif" font-size="9.1" lengthAdjust="spacing" textLength="37.8" x="127.75" y="763.6046">indexing</text></g><!--MD5=[17a30f1d03d2d956c74f9af55bbf12bb]
@startuml
scale 750 width 
scale 800 height
scale 0.7

title Data transfer FRIImaging

skinparam component {
    BackgroundColor<<data>> Application
    BackgroundColor<<copy>> AliceBlue
    BackgroundColor Beige
}

package "Motor Slave Controller\n 1 data item" as MOTOR {
    component [Motor Position\n 1 uint32] as MO_POS <<data>>
    component [Motor Command\n\n 1 uint32] as MO_COM
}

interface "SERIAL UART" as UART

package "IMU Master Calculator\n 13 data items" as IMU {
    frame "AHRS fusion" as AHRS{
    component [AccelX-Y-Z\n 3 uint32] as IMU_acc <<data>>
    component [GyrosX-Y-Z\n 3 uint32] as IMU_gyr <<data>>
    component [MagntX-Y-Z\n 3 uint32] as IMU_mag <<data>>
    }
    component [EulerR-P-Y\n 3 float32] as IMU_eul <<data>>
    component [Timing\n 1 uint32] as IMU_time <<data>>
    component [Motor Position\n 1 uint32] as IMU_MOPOS <<copy>>
    component [Motor Command\n\n 1 uint32] as IMU_COM
}

interface "USB port" as USB

node "Computer" as COMP {
    
    storage "Binary Data File" as BIN_DATA
    database "RedCentral\nMySQL\nDatabase" as DB {
    [Session related\nfile identifiers] as SESSION
    }
} 

MO_POS .down.> UART : transfer
UART .down.> IMU_MOPOS : transfer
UART -up-( MO_COM : control
IMU_eul - -> IMU_COM : conversion
IMU_COM -up-> UART : control


AHRS -up-> IMU_eul
IMU_acc . IMU_gyr 
IMU_gyr . IMU_mag 

IMU_time - IMU_eul
IMU_MOPOS - IMU_time

IMU_MOPOS - -> USB : transfer
AHRS - -> USB : transfer
USB - -> BIN_DATA : saving

SESSION .> BIN_DATA : indexing
@enduml

PlantUML version 1.2022.5(Sat Apr 30 10:55:52 UTC 2022)
(GPL source distribution)
Java Runtime: Java(TM) SE Runtime Environment
JVM: Java HotSpot(TM) 64-Bit Server VM
Default Encoding: UTF-8
Language: en
Country: US
--></g></svg>